<?xml version="1.0" encoding="utf-8"?>
<!-- Generator: Adobe Illustrator 22.0.1, SVG Export Plug-In . SVG Version: 6.00 Build 0)  -->
<svg version="1.1" id="Capa_1" xmlns="http://www.w3.org/2000/svg" xmlns:xlink="http://www.w3.org/1999/xlink" x="0px" y="0px"
	 viewBox="0 0 326.8 105.9" style="enable-background:new 0 0 326.8 105.9;" xml:space="preserve">
<style type="text/css">
	.st0{fill:#FF7E13;}
	.st1{fill:none;stroke:#13DCFF;stroke-width:3;stroke-miterlimit:10;}
</style>
<g>
	<g>
		<path class="st0" d="M26.7,38h-2.5L0,90.4h2.8l22.8-49.5l22.7,49.5h2.8L26.7,38z"/>
		<path class="st0" d="M49.3,38v2.3h19.2v50.1H71V40.3h19.2V38H49.3z"/>
		<path class="st0" d="M144.6,50.7c-2.3-4-5.6-7.1-9.8-9.3c-4.2-2.2-9-3.4-14.5-3.4h-20.2v52.4h20.2c5.4,0,10.3-1.1,14.5-3.4
			c4.2-2.2,7.5-5.3,9.8-9.3s3.5-8.5,3.5-13.5C148,59.1,146.9,54.6,144.6,50.7z M142.4,76.5c-2.1,3.6-5.1,6.5-8.9,8.5
			s-8.3,3.1-13.4,3.1h-17.5V40.4h17.5c5.1,0,9.5,1,13.4,3.1c3.8,2,6.8,4.9,8.9,8.5s3.1,7.7,3.1,12.3
			C145.5,68.8,144.5,72.9,142.4,76.5z"/>
		<path class="st0" d="M207.2,50.6c-2.3-4-5.6-7.2-9.7-9.5s-8.8-3.4-13.8-3.4c-5.1,0-9.7,1.2-13.8,3.4c-4.1,2.3-7.3,5.5-9.7,9.5
			c-2.3,4-3.5,8.5-3.5,13.5s1.2,9.5,3.5,13.5s5.6,7.2,9.7,9.5s8.7,3.4,13.8,3.4c5.1,0,9.7-1.1,13.8-3.4c4.1-2.3,7.4-5.5,9.7-9.5
			c2.3-4,3.5-8.6,3.5-13.5S209.5,54.7,207.2,50.6z M204.9,76.5c-2.1,3.7-5.1,6.6-8.8,8.7c-3.7,2.1-7.9,3.1-12.5,3.1s-8.7-1-12.5-3.1
			c-3.7-2.1-6.7-5-8.8-8.7c-2.2-3.7-3.2-7.8-3.2-12.4c0-4.5,1.1-8.6,3.2-12.3s5.1-6.6,8.8-8.7c3.7-2.1,7.9-3.1,12.5-3.1
			s8.8,1,12.5,3.1s6.7,5,8.8,8.7c2.1,3.7,3.2,7.8,3.2,12.3C208.1,68.7,207.1,72.8,204.9,76.5z"/>
		<path class="st0" d="M269.8,50.6c-2.3-4-5.6-7.2-9.7-9.5s-8.8-3.4-13.8-3.4c-5.1,0-9.7,1.2-13.8,3.4c-4.1,2.3-7.3,5.5-9.7,9.5
			c-2.3,4-3.5,8.5-3.5,13.5s1.2,9.5,3.5,13.5s5.6,7.2,9.7,9.5s8.7,3.4,13.8,3.4c5.1,0,9.7-1.1,13.8-3.4c4.1-2.3,7.4-5.5,9.7-9.5
			c2.4-4,3.5-8.6,3.5-13.5S272.2,54.7,269.8,50.6z M267.6,76.5c-2.1,3.7-5.1,6.6-8.8,8.7c-3.7,2.1-7.9,3.1-12.5,3.1s-8.8-1-12.5-3.1
			s-6.7-5-8.8-8.7c-2.1-3.7-3.2-7.8-3.2-12.4c0-4.5,1.1-8.6,3.2-12.3s5.1-6.6,8.8-8.7c3.7-2.1,7.9-3.1,12.5-3.1s8.8,1,12.5,3.1
			c3.8,2.1,6.7,5,8.8,8.7c2.1,3.7,3.2,7.8,3.2,12.3C270.8,68.7,269.7,72.8,267.6,76.5z"/>
		<path class="st0" d="M313.6,71.7c4-1.1,7.1-3.1,9.3-5.9c2.2-2.8,3.2-6.3,3.2-10.5c0-5.4-1.8-9.7-5.5-12.8
			c-3.7-3.1-8.8-4.6-15.3-4.6h-18.2v52.5h2.5V72.8h15.6c2.1,0,4-0.2,5.7-0.5l12.9,18h3L313.6,71.7z M305.5,70.5h-15.8V40.3h15.8
			c5.8,0,10.3,1.3,13.5,3.9c3.1,2.6,4.7,6.3,4.7,11.1c0,4.8-1.6,8.6-4.7,11.2C315.8,69.2,311.3,70.5,305.5,70.5z"/>
	</g>
	<path class="st0" d="M26,68.8h-1L15,90.3h1.1L25.5,70l9.3,20.3h1.1L26,68.8z"/>
	<rect x="183.6" y="1.5" class="st1" width="62.6" height="102.9"/>
	<path class="st0" d="M207.2,50.6c-2.3-4-5.6-7.2-9.7-9.5s-8.8-3.4-13.8-3.4s-9.7,1.2-13.8,3.4c-4.1,2.3-7.3,5.5-9.7,9.5
		c-2.3,4-3.5,8.5-3.5,13.5s1.2,9.5,3.5,13.5s5.6,7.2,9.7,9.5c2,1.1,4.1,2,6.3,2.5v-2.4c-1.7-0.5-3.4-1.2-5-2.1
		c-3.7-2.1-6.6-5-8.8-8.7c-2.2-3.7-3.2-7.8-3.2-12.4c0-4.5,1.1-8.6,3.2-12.3s5.1-6.6,8.8-8.7c3.7-2.1,7.9-3.1,12.5-3.1
		s8.8,1,12.5,3.1s6.7,5,8.8,8.7c2.1,3.7,3.2,7.8,3.2,12.3s-1.1,8.7-3.2,12.4c-2.2,3.7-5.1,6.6-8.8,8.7c-1.5,0.8-3,1.5-4.7,2v2.4
		c2.1-0.6,4.1-1.4,6-2.4c4.1-2.3,7.4-5.5,9.7-9.5c2.3-4,3.5-8.6,3.5-13.5S209.5,54.7,207.2,50.6z"/>
	<path class="st0" d="M222.7,77.8c2.3,4,5.6,7.2,9.7,9.5s8.8,3.4,13.8,3.4s9.7-1.2,13.8-3.4c4.1-2.3,7.3-5.5,9.7-9.5
		c2.3-4,3.5-8.5,3.5-13.5s-1.2-9.5-3.5-13.5s-5.6-7.2-9.7-9.5c-2-1.1-4.1-2-6.3-2.5v2.4c1.7,0.5,3.4,1.2,5,2.1
		c3.7,2.1,6.6,5,8.8,8.7c2.2,3.7,3.2,7.8,3.2,12.4c0,4.5-1.1,8.6-3.2,12.3s-5.1,6.6-8.8,8.7c-3.7,2.1-7.9,3.1-12.5,3.1
		s-8.8-1-12.5-3.1s-6.7-5-8.8-8.7c-2.1-3.7-3.2-7.8-3.2-12.3s1.1-8.7,3.2-12.4c2.2-3.7,5.1-6.6,8.8-8.7c1.5-0.8,3-1.5,4.7-2v-2.4
		c-2.1,0.6-4.1,1.4-6,2.4c-4.1,2.3-7.4,5.5-9.7,9.5c-2.3,4-3.5,8.6-3.5,13.5S220.4,73.8,222.7,77.8z"/>
</g>
</svg>
